<?xml version="1.0" encoding="UTF-8" standalone="no"?>
<!-- Created with Inkscape (http://www.inkscape.org/) -->

<svg
   version="1.1"
   id="svg1"
   width="1007.9999"
   height="272"
   viewBox="0 0 1007.9999 272"
   sodipodi:docname="logo.svg"
   inkscape:version="1.3.2 (091e20e, 2023-11-25)"
   xmlns:inkscape="http://www.inkscape.org/namespaces/inkscape"
   xmlns:sodipodi="http://sodipodi.sourceforge.net/DTD/sodipodi-0.dtd"
   xmlns="http://www.w3.org/2000/svg"
   xmlns:svg="http://www.w3.org/2000/svg">
  <defs
     id="defs1" />
  <sodipodi:namedview
     id="namedview1"
     pagecolor="#ffffff"
     bordercolor="#000000"
     borderopacity="0.25"
     inkscape:showpageshadow="2"
     inkscape:pageopacity="0.0"
     inkscape:pagecheckerboard="0"
     inkscape:deskcolor="#d1d1d1"
     inkscape:zoom="0.76095916"
     inkscape:cx="501.99803"
     inkscape:cy="111.70113"
     inkscape:window-width="1920"
     inkscape:window-height="1027"
     inkscape:window-x="0"
     inkscape:window-y="25"
     inkscape:window-maximized="1"
     inkscape:current-layer="g1" />
  <g
     inkscape:groupmode="layer"
     inkscape:label="Image"
     id="g1"
     transform="translate(-0.98534,1.3141311)">
    <path
       style="fill:#000000"
       d="m 64.98534,262.68587 v -8 h 8 8 v -8 -8 h -16 -16 v -8 -8 h -8 -8 v -8 -8 h -8 -8 v -8 -8 h -8 -8 v -40 -40 h 8 8 v -8 -8.000001 h 8 8 v -8 -8 h 8 8 v -8 -8 h 32 32 v 8 8 h 8 8 v 8 8 h 8 8 v 8.000001 8 h 8 8 v 8 8 h 8 8 v 8 8 h 8 8 v 8 8 h 8 8 v 8 8 h 8 8 v 8 8 h 8 8 v -64 -64.000001 h 16 16 v 88.000001 88 h -8 -8 v -8 -8 h -8 -8 v -8 -8 h -8 -8 v -8 -8 h -8 -8 v -8 -8 h -8 -8 v -8 -8 h -8 -8 v -8 -8 h -8 -8 v -8 -8 h -8 -8 v -8 -8 h -8 -8 v 72 72 h -8 -8 v 8 8 h -8 -8 v -8 -8 h -8 -8 v 8 8 h -8 -8 z m 48,-16 v -8 h -8 -8 v 8 8 h 8 8 z m -16,-96 V 78.685869 h -24 -24 v 8 8 h -8 -8 v 56.000001 56 h 8 8 v 8 8 h 24 24 z m 224,0 V 62.685869 h 24 24 v 8 8 h -16 -16 v 40.000001 40 h 8 8 v 8 8 h -8 -8 v 16 16 h 16 16 v 16 16 h -24 -24 z m 64,0 V 62.685869 h 24 24 v 88.000001 88 h -8 -8 v -80 -80.000001 h -8 -8 v 80.000001 80 h -8 -8 z m 80,8 V 78.685869 h -8 -8 v -8 -8 h 24 24 v 8 8 h -8 -8 v 80.000001 80 h -8 -8 z m 48,-8 V 62.685869 h 24 24 v 8 8 h -16 -16 v 40.000001 40 h 8 8 v 8 8 h -8 -8 v 16 16 h 16 16 v 16 16 h -24 -24 z m 64,0 V 62.685869 h 24 24 v 56.000001 56 h -8 -8 v 8 8 h 8 8 v 24 24 h -8 -8 v -24 -24 h -8 -8 v 24 24 h -8 -8 z m 32,-32 V 78.685869 h -8 -8 v 40.000001 40 h 8 8 z m 32,32 V 62.685869 h 24 24 v 56.000001 56 h -16 -16 v 32 32 h -8 -8 z m 32,-32 V 78.685869 h -8 -8 v 40.000001 40 h 8 8 z m 32,32 V 62.685869 h 24 24 v 56.000001 56 h -8 -8 v 8 8 h 8 8 v 24 24 h -8 -8 v -24 -24 h -8 -8 v 24 24 h -8 -8 z m 32,-32 V 78.685869 h -8 -8 v 40.000001 40 h 8 8 z m 32,112 v -8 h 8 8 v -72 -72.000001 h -8 -8 v -8 -8 h 24 24 v 8 8 h -8 -8 v 72.000001 72 h 8 8 v 8 8 h -24 -24 z m 64,-8 v -16 h 8 8 v 8 8 h 8 8 v -24 -24 h -16 -16 v -56 -56.000001 h 24 24 v 16 16 h -8 -8 v -8 -8 h -8 -8 v 40.000001 40 h 16 16 v 40 40 h -24 -24 z m 63.99995,-72 V 62.685869 h 24 24 v 8 8 h -16 -16 v 40.000001 40 h 8 8 v 8 8 h -8 -8 v 16 16 h 16 16 v 16 16 h -24 -24 z m 64,72 v -16 h 8 8 v 8 8 h 8 8 v -24 -24 h -16 -16 v -56 -56.000001 h 24 24.00001 v 16 16 h -8 -8.00001 v -8 -8 h -8 -8 v 40.000001 40 h 16 16.00001 v 40 40 h -24.00001 -24 z M 96.98534,14.685869 V -1.3141311 h 16 16 v 16.0000001 16 h -16 -16 z"
       id="path1" />
  </g>
</svg>
