<svg width="156" height="46" viewBox="0 0 156 46" fill="none" xmlns="http://www.w3.org/2000/svg">
<path d="M42.4412 0.0588379H3.44118C1.54165 0.0588379 0 1.60048 0 3.50001V42.5C0 44.3995 1.54165 45.9412 3.44118 45.9412H42.4412C44.3407 45.9412 45.8824 44.3995 45.8824 42.5V3.50001C45.8824 1.60048 44.3407 0.0588379 42.4412 0.0588379Z" fill="#004499"/>
<path d="M152.559 0.0588379H51.6176C49.7181 0.0588379 48.1765 1.60048 48.1765 3.50001V42.5C48.1765 44.3995 49.7181 45.9412 51.6176 45.9412H152.559C154.458 45.9412 156 44.3995 156 42.5V3.50001C156 1.60048 154.458 0.0588379 152.559 0.0588379Z" fill="#004499"/>
<path d="M63.3824 30.3916V29.0197C63.1851 29.24 62.997 29.4419 62.818 29.6346C62.6391 29.8227 62.4418 29.9879 62.2261 30.1255C61.9967 30.2723 61.7443 30.3825 61.4828 30.4559C61.1616 30.543 60.8359 30.5797 60.5055 30.5752C59.4181 30.6761 58.3766 30.1117 57.8627 29.1436C57.6654 28.749 57.5369 28.3269 57.4773 27.891C57.3855 27.2303 57.3488 26.5604 57.358 25.8906V20.1277C57.3442 19.3202 57.3764 18.5127 57.4498 17.7097C57.5278 16.7783 58.0462 15.9433 58.8445 15.4707C59.3584 15.177 59.9458 15.044 60.5377 15.0807C61.0929 15.0715 61.6434 15.2092 62.1252 15.4845C62.607 15.7689 63.0199 16.1635 63.3273 16.6315H63.387V9.13892H66.4151V30.4008H63.3824V30.3916ZM60.3954 25.4593C60.3725 25.9823 60.4964 26.4962 60.7533 26.9504C60.9965 27.3313 61.4324 27.5515 61.882 27.5194C62.3087 27.5331 62.717 27.3405 62.9786 27.0009C63.2676 26.6109 63.4145 26.1292 63.3916 25.6428V19.7561C63.4053 19.3202 63.2539 18.8981 62.9603 18.5769C62.685 18.2741 62.2858 18.1043 61.8774 18.1135C61.4186 18.0584 60.9643 18.2649 60.7028 18.6503C60.4917 19.0312 60.3817 19.467 60.3954 19.9029V25.4593Z" fill="white"/>
<path d="M68.6405 20.3296C68.6359 19.7606 68.6772 19.1917 68.7598 18.6273C68.9295 17.3885 69.6591 16.2965 70.7327 15.6725C72.2514 14.8741 74.0592 14.8741 75.5779 15.6725C76.6562 16.2965 77.3856 17.3885 77.5508 18.6273C77.6334 19.1917 77.6747 19.7606 77.6701 20.3296V25.317C77.6747 25.8859 77.6334 26.4548 77.5508 27.0192C77.381 28.258 76.6516 29.35 75.5779 29.974C74.0592 30.7724 72.2514 30.7724 70.7327 29.974C69.6545 29.35 68.925 28.258 68.7598 27.0192C68.6772 26.4548 68.6359 25.8859 68.6405 25.317V20.3296ZM71.6688 25.7941C71.6321 26.2621 71.7742 26.7255 72.0679 27.0926C72.6781 27.6661 73.6233 27.6661 74.2335 27.0926C74.5272 26.7255 74.6694 26.2621 74.6327 25.7941V19.8524C74.6694 19.3844 74.5226 18.921 74.2335 18.5539C73.6279 17.9758 72.6781 17.9758 72.0679 18.5539C71.7742 18.921 71.6321 19.3844 71.6688 19.8524V25.7941Z" fill="white"/>
<path d="M85.9197 30.3916V29.0197C85.7225 29.24 85.5343 29.4419 85.3554 29.6346C85.1765 29.8227 84.9792 29.9879 84.7635 30.1255C84.5341 30.2723 84.2818 30.3825 84.0203 30.4559C83.6991 30.543 83.3733 30.5797 83.0429 30.5752C81.9555 30.6761 80.914 30.1117 80.4001 29.1436C80.2028 28.749 80.0744 28.3269 80.0147 27.891C79.923 27.2303 79.8863 26.5604 79.8954 25.8906V20.1277C79.8817 19.3202 79.9138 18.5127 79.9872 17.7097C80.0652 16.7783 80.5837 15.9433 81.382 15.4707C81.8959 15.177 82.4832 15.044 83.0751 15.0807C83.6302 15.0715 84.1808 15.2092 84.6626 15.4845C85.1443 15.7689 85.5573 16.1635 85.8647 16.6315H85.9243V9.13892H88.9526V30.4008H85.9197V30.3916ZM82.9236 25.4639C82.9007 25.9869 83.0246 26.5008 83.2815 26.955C83.5247 27.3359 83.9607 27.5561 84.4103 27.524C84.837 27.5377 85.2453 27.345 85.5069 27.0055C85.7959 26.6155 85.9427 26.1337 85.9197 25.6474V19.7607C85.9335 19.3248 85.7821 18.9027 85.4885 18.5815C85.2132 18.2787 84.8187 18.1089 84.4057 18.1181C83.9469 18.063 83.4926 18.2695 83.2311 18.6549C83.02 19.0357 82.9099 19.4716 82.9236 19.9075V25.4639Z" fill="white"/>
<path d="M94.4723 32.1534C94.4998 32.5297 94.6512 32.8876 94.9035 33.1675C95.2018 33.4978 95.6331 33.6767 96.0782 33.6446C96.4911 33.6813 96.8902 33.507 97.1471 33.1812C97.3766 32.8325 97.4914 32.4196 97.473 32.002V29.0151H97.4133C97.1059 29.4877 96.693 29.8777 96.2112 30.1667C95.7157 30.442 95.1605 30.5843 94.5916 30.5705C93.5042 30.6715 92.4626 30.1071 91.9488 29.139C91.7515 28.7444 91.6229 28.3223 91.5633 27.8864C91.4761 27.2257 91.4348 26.5558 91.444 25.8859V20.1231C91.4302 19.3156 91.4623 18.508 91.5357 17.7051C91.6137 16.7737 92.1322 15.9386 92.9306 15.466C93.4445 15.1724 94.0317 15.0393 94.6236 15.076C94.9494 15.0714 95.2752 15.1082 95.5872 15.1953C95.8441 15.2687 96.0873 15.3789 96.3122 15.5257C96.5278 15.6633 96.7297 15.8285 96.9041 16.0166C97.083 16.2047 97.2711 16.4112 97.4684 16.6269V15.255H100.497V32.2498C100.492 32.782 100.409 33.3097 100.244 33.819C100.079 34.3466 99.7992 34.8284 99.4276 35.2367C99.033 35.6864 98.5466 36.0489 98.0006 36.2966C97.3537 36.5811 96.6563 36.7187 95.9543 36.7004C95.4725 36.6958 94.9907 36.6224 94.5273 36.4756C94.0226 36.3196 93.5592 36.0626 93.16 35.7139C92.7012 35.3423 92.3204 34.8789 92.0451 34.3558C91.7056 33.6722 91.499 32.9243 91.4348 32.1626L94.4723 32.1534ZM94.4723 25.7345C94.4631 26.175 94.5686 26.6063 94.7797 26.9871C95.0412 27.3725 95.4909 27.579 95.9543 27.5239C96.3672 27.5331 96.7617 27.3679 97.037 27.0605C97.3307 26.7393 97.4822 26.3172 97.4684 25.8813V19.9992C97.4914 19.5129 97.3445 19.0311 97.0554 18.6411C96.7939 18.3016 96.3856 18.1043 95.9589 18.118C95.5092 18.0859 95.0734 18.3016 94.8302 18.687C94.5732 19.1412 94.4493 19.6597 94.4723 20.1781V25.7345Z" fill="white"/>
<path d="M111.752 23.9726H105.755V26.0327C105.727 26.441 105.874 26.8402 106.154 27.1384C106.448 27.4091 106.842 27.5468 107.237 27.5284C107.682 27.5881 108.122 27.3954 108.379 27.0191C108.558 26.7071 108.673 26.363 108.723 26.0051H111.752C111.802 27.2027 111.362 28.3681 110.536 29.2307C110.132 29.6528 109.646 29.9877 109.109 30.2171C108.517 30.4649 107.879 30.5842 107.237 30.575C106.393 30.6026 105.553 30.3961 104.814 29.9786C103.736 29.3546 103.006 28.2626 102.841 27.0237C102.759 26.4594 102.717 25.8904 102.722 25.3215V20.3341C102.717 19.7652 102.759 19.1962 102.841 18.6318C103.011 17.393 103.741 16.301 104.814 15.677C105.553 15.2595 106.388 15.053 107.237 15.0806C107.884 15.0714 108.521 15.1953 109.122 15.4384C109.668 15.6633 110.159 15.9982 110.568 16.4249C111.375 17.3563 111.797 18.563 111.756 19.8019L111.752 23.9726ZM105.755 21.5867H108.723V19.8569C108.76 19.3889 108.613 18.9255 108.324 18.5584C107.718 17.9803 106.769 17.9803 106.158 18.5584C105.865 18.9255 105.723 19.3889 105.759 19.8569L105.755 21.5867Z" fill="white"/>
<path d="M113.977 30.3915V9.12964H117.005V16.6222H117.065C117.372 16.1496 117.785 15.7596 118.267 15.4752C118.753 15.1999 119.299 15.0622 119.854 15.0714C120.446 15.0393 121.038 15.1723 121.561 15.4614C121.96 15.7138 122.3 16.0487 122.557 16.4479C122.777 16.8333 122.91 17.26 122.942 17.7005C123.011 18.5034 123.043 19.3109 123.029 20.1185V25.8813C123.039 26.5512 123.002 27.221 122.91 27.8818C122.851 28.3176 122.722 28.7443 122.525 29.1343C122.002 30.0933 120.969 30.6576 119.882 30.5659C119.276 30.6072 118.671 30.4512 118.161 30.1162C117.735 29.7905 117.349 29.4188 117.005 29.0105V30.3823L113.977 30.3915ZM120.006 19.912C120.015 19.4715 119.909 19.0402 119.698 18.6594C119.437 18.274 118.987 18.0675 118.524 18.1226C118.111 18.1134 117.716 18.2832 117.441 18.586C117.147 18.9072 116.996 19.3293 117.01 19.7652V25.6473C116.987 26.1336 117.134 26.6154 117.423 27.0054C117.684 27.3449 118.092 27.5376 118.519 27.5239C118.969 27.556 119.405 27.3403 119.648 26.9549C119.905 26.5007 120.029 25.9822 120.001 25.4638L120.006 19.912Z" fill="white"/>
<path d="M131.256 30.3916V28.8362H131.197C130.866 29.3271 130.458 29.7584 129.994 30.1209C129.485 30.4467 128.889 30.6027 128.288 30.5705C127.921 30.5705 127.553 30.5155 127.205 30.4054C126.815 30.2815 126.452 30.0704 126.149 29.7905C125.778 29.4648 125.498 29.0473 125.333 28.5793C125.103 27.9231 124.998 27.2303 125.025 26.5329C125.016 25.7758 125.085 25.0188 125.232 24.2801C125.347 23.679 125.613 23.1193 126.003 22.6512C126.393 22.2108 126.897 21.885 127.457 21.7107C128.219 21.4813 129.008 21.3757 129.802 21.3987H130.127C130.238 21.3987 130.348 21.4078 130.453 21.4262C130.572 21.4491 130.692 21.4583 130.811 21.4583C130.958 21.4583 131.109 21.4675 131.256 21.4904V19.9075C131.274 19.4578 131.16 19.0082 130.93 18.6228C130.651 18.2557 130.201 18.063 129.742 18.1135C129.347 18.1135 128.962 18.2511 128.659 18.5035C128.315 18.7925 128.09 19.1963 128.021 19.6368H125.08C125.108 18.4071 125.594 17.2325 126.448 16.3516C126.856 15.9432 127.338 15.6267 127.875 15.411C128.471 15.177 129.104 15.0577 129.747 15.0669C130.352 15.0623 130.958 15.1632 131.527 15.3651C132.068 15.5578 132.564 15.8607 132.981 16.2598C133.399 16.6865 133.72 17.1958 133.931 17.751C134.183 18.4209 134.303 19.1275 134.289 19.8433V30.3824L131.256 30.3916ZM131.256 23.8809C130.981 23.8258 130.706 23.7983 130.426 23.7891C129.834 23.7708 129.251 23.936 128.746 24.2525C128.237 24.6563 127.971 25.2941 128.049 25.941C128.026 26.4411 128.168 26.9367 128.462 27.345C128.737 27.7029 129.168 27.9048 129.618 27.8818C130.077 27.9048 130.517 27.7213 130.82 27.3725C131.132 26.9642 131.284 26.4549 131.252 25.9364L131.256 23.8809Z" fill="white"/>
<path d="M136.335 9.12964H139.364V26.1199C139.318 26.5374 139.428 26.9595 139.671 27.2991C140.011 27.556 140.419 27.6982 140.841 27.7028V30.5705C140.212 30.5751 139.588 30.52 138.969 30.4053C138.451 30.3135 137.96 30.0933 137.542 29.7629C137.124 29.4372 136.812 28.9967 136.638 28.4966C136.409 27.7992 136.303 27.065 136.331 26.3309L136.335 9.12964Z" fill="white"/>
<path d="M141.855 9.12964H144.883V26.1199C144.837 26.5374 144.947 26.9595 145.191 27.2991C145.526 27.556 145.938 27.6982 146.361 27.7028V30.5705C145.732 30.5751 145.108 30.52 144.489 30.4053C143.97 30.3135 143.479 30.0933 143.062 29.7629C142.644 29.4372 142.332 28.9967 142.158 28.4966C141.928 27.7992 141.823 27.065 141.85 26.3309L141.855 9.12964Z" fill="white"/>
<path d="M22.9458 13.709C17.8162 13.709 13.6592 17.8705 13.6592 23.0002C13.6592 28.1298 17.8162 32.2913 22.9458 32.2913C28.0755 32.2913 32.2324 28.1298 32.2324 23.0002H32.2416V13.709H22.9458Z" fill="white"/>
<path d="M22.9503 9.23535H22.9412C15.343 9.23077 9.18104 15.3928 9.17646 22.9955C9.17187 30.5982 15.3339 36.7648 22.932 36.7648C30.5301 36.7694 36.6921 30.6074 36.6967 23.0047V23.0001H36.7059V9.23535H22.9503ZM34.5081 23.0001H34.4989C34.4943 29.3869 29.3188 34.5624 22.9366 34.5578C16.5543 34.5532 11.3788 29.3777 11.3834 22.9909C11.388 16.6086 16.5589 11.4331 22.9412 11.4331H34.5081V23.0001Z" fill="white"/>
</svg>
 